<svg xmlns="http://www.w3.org/2000/svg" xmlns:xlink="http://www.w3.org/1999/xlink" width="1080" zoomAndPan="magnify" viewBox="0 0 810 809.999993" height="1080" preserveAspectRatio="xMidYMid meet" version="1.0"><path fill="rgb(1.568604%, 2.349854%, 2.349854%)" d="M 533.152344 435.800781 C 508.578125 397.628906 481.796875 359.453125 440.121094 338.480469 C 352.007812 294.15625 242.84375 317.308594 148.777344 342.742188 C 148.601562 353.796875 148.6875 365.082031 149.179688 376.742188 C 149.179688 376.742188 149.269531 376.867188 149.464844 377.109375 C 144.847656 437.253906 141.191406 473.421875 169.15625 485.074219 C 222.183594 507.164062 392.847656 540.703125 409.429688 527.148438 C 431.328125 509.230469 496.886719 464.78125 541.691406 448.1875 C 538.6875 444.050781 535.816406 439.921875 533.152344 435.800781 " fill-opacity="1" fill-rule="nonzero"/><path fill="rgb(1.568604%, 2.349854%, 2.349854%)" d="M 533.152344 435.800781 L 534.949219 434.640625 C 522.640625 415.53125 509.753906 396.355469 494.648438 379.269531 C 479.554688 362.195312 462.230469 347.207031 441.089844 336.570312 C 404.640625 318.238281 364.683594 311.363281 323.792969 311.363281 C 264.808594 311.363281 203.832031 325.652344 148.21875 340.683594 C 147.300781 340.933594 146.660156 341.75 146.640625 342.710938 C 146.582031 346.136719 146.558594 349.582031 146.558594 353.0625 C 146.558594 360.835938 146.699219 368.742188 147.042969 376.835938 C 147.058594 377.269531 147.210938 377.695312 147.476562 378.042969 C 147.484375 378.054688 147.59375 378.1875 147.785156 378.4375 L 149.464844 377.109375 L 147.335938 376.945312 C 145.683594 398.472656 144.148438 416.957031 144.148438 432.457031 C 144.148438 446.351562 145.367188 457.871094 148.996094 467.074219 C 150.816406 471.667969 153.261719 475.679688 156.457031 479.042969 C 159.652344 482.398438 163.597656 485.074219 168.332031 487.042969 C 179.628906 491.746094 196.011719 496.902344 215.0625 502.023438 C 243.636719 509.707031 278.203125 517.296875 310.289062 522.96875 C 342.394531 528.640625 371.960938 532.402344 390.785156 532.410156 C 395.558594 532.402344 399.648438 532.171875 402.980469 531.628906 C 406.308594 531.070312 408.886719 530.300781 410.78125 528.800781 C 421.605469 519.941406 443.445312 504.359375 468.105469 488.976562 C 492.753906 473.597656 520.277344 458.390625 542.433594 450.191406 C 543.058594 449.957031 543.542969 449.449219 543.734375 448.804688 C 543.925781 448.164062 543.8125 447.480469 543.417969 446.9375 C 540.4375 442.816406 537.578125 438.71875 534.949219 434.640625 L 533.152344 435.800781 L 531.359375 436.953125 C 534.046875 441.121094 536.941406 445.277344 539.964844 449.4375 L 541.691406 448.1875 L 540.949219 446.1875 C 518.292969 454.578125 490.644531 469.882812 465.84375 485.359375 C 441.03125 500.832031 419.144531 516.4375 408.078125 525.488281 C 407.316406 526.148438 405.273438 526.949219 402.292969 527.414062 C 399.316406 527.898438 395.410156 528.140625 390.785156 528.140625 C 378.59375 528.140625 361.402344 526.488281 341.84375 523.703125 C 312.5 519.53125 277.800781 512.84375 246.300781 505.453125 C 214.804688 498.070312 186.449219 489.96875 169.976562 483.097656 C 165.726562 481.328125 162.324219 479 159.550781 476.089844 C 155.394531 471.734375 152.617188 466.015625 150.855469 458.738281 C 149.105469 451.476562 148.410156 442.691406 148.417969 432.457031 C 148.410156 417.242188 149.9375 398.804688 151.589844 377.269531 C 151.632812 376.734375 151.472656 376.203125 151.132812 375.785156 L 150.933594 375.527344 L 150.875 375.441406 L 149.179688 376.742188 L 151.308594 376.652344 C 150.972656 368.628906 150.832031 360.777344 150.832031 353.0625 C 150.832031 349.609375 150.855469 346.179688 150.914062 342.777344 L 148.777344 342.742188 L 149.335938 344.804688 C 204.832031 329.796875 265.492188 315.625 323.792969 315.632812 C 364.207031 315.632812 403.460938 322.433594 439.164062 340.390625 C 459.699219 350.71875 476.597656 365.308594 491.453125 382.097656 C 506.300781 398.890625 519.085938 417.890625 531.359375 436.953125 L 533.152344 435.800781 " fill-opacity="1" fill-rule="nonzero"/><path fill="rgb(74.119568%, 51.368713%, 100%)" d="M 437.785156 702.820312 C 459.960938 682.550781 459.890625 666.953125 454.117188 643.304688 C 451.523438 632.691406 409.429688 527.148438 409.429688 527.148438 C 409.429688 527.148438 358.433594 535.546875 362.289062 544.289062 C 366.144531 553.039062 432.410156 707.726562 437.785156 702.820312 " fill-opacity="1" fill-rule="nonzero"/><path fill="rgb(1.568604%, 2.349854%, 2.349854%)" d="M 437.785156 702.820312 L 439.222656 704.394531 C 446.683594 697.582031 451.765625 691.191406 454.984375 684.753906 C 458.207031 678.3125 459.515625 671.839844 459.515625 665.082031 C 459.507812 658.132812 458.164062 650.878906 456.195312 642.792969 C 455.8125 641.269531 454.875 638.480469 453.464844 634.546875 C 443.636719 607.144531 411.425781 526.371094 411.414062 526.355469 C 411.039062 525.421875 410.070312 524.871094 409.078125 525.039062 C 409.046875 525.046875 397.179688 527 385.230469 530.027344 C 379.246094 531.542969 373.261719 533.320312 368.628906 535.304688 C 366.308594 536.308594 364.332031 537.351562 362.796875 538.550781 C 362.03125 539.160156 361.363281 539.8125 360.835938 540.585938 C 360.320312 541.355469 359.941406 542.296875 359.941406 543.339844 C 359.941406 543.949219 360.078125 544.582031 360.335938 545.15625 L 360.335938 545.148438 C 362.214844 549.429688 379.246094 589.117188 396.6875 627.722656 C 405.414062 647.03125 414.234375 666.066406 421.347656 680.316406 C 424.910156 687.4375 428.03125 693.359375 430.527344 697.566406 C 431.777344 699.667969 432.863281 701.335938 433.820312 702.570312 C 434.316406 703.1875 434.757812 703.695312 435.257812 704.128906 C 435.515625 704.339844 435.785156 704.539062 436.125 704.722656 C 436.46875 704.898438 436.902344 705.0625 437.484375 705.070312 C 438.085938 705.089844 438.769531 704.804688 439.171875 704.445312 L 439.222656 704.394531 L 437.785156 702.820312 L 436.390625 701.203125 L 437.484375 702.476562 L 437.484375 700.800781 C 437.101562 700.785156 436.617188 700.984375 436.390625 701.203125 L 437.484375 702.476562 L 437.484375 700.800781 L 437.484375 702.101562 L 438.09375 700.933594 C 438.027344 700.902344 437.84375 700.800781 437.484375 700.800781 L 437.484375 702.101562 L 438.09375 700.933594 L 437.871094 701.359375 L 438.128906 700.953125 L 438.09375 700.933594 L 437.871094 701.359375 L 438.128906 700.953125 L 438.09375 700.925781 C 437.996094 700.851562 437.703125 700.574219 437.359375 700.152344 C 436.683594 699.324219 435.757812 697.964844 434.683594 696.1875 C 430.609375 689.488281 424.324219 676.988281 417.207031 661.988281 C 395.828125 616.945312 366.769531 549.160156 364.242188 543.429688 L 364.242188 543.421875 L 364.214844 543.339844 C 364.214844 543.324219 364.207031 543.230469 364.382812 542.964844 C 364.699219 542.464844 365.683594 541.605469 367.167969 540.769531 C 369.78125 539.277344 373.820312 537.75 378.34375 536.367188 C 385.121094 534.289062 393.007812 532.503906 399.171875 531.246094 C 402.253906 530.609375 404.90625 530.117188 406.792969 529.777344 C 407.734375 529.601562 408.488281 529.476562 408.996094 529.382812 C 409.503906 529.292969 409.773438 529.25 409.78125 529.25 L 409.429688 527.148438 L 407.445312 527.933594 C 407.445312 527.941406 408.101562 529.585938 409.253906 532.488281 C 413.300781 542.664062 423.449219 568.238281 432.871094 592.421875 C 437.578125 604.515625 442.109375 616.269531 445.597656 625.5625 C 447.339844 630.207031 448.828125 634.234375 449.9375 637.390625 C 451.054688 640.527344 451.804688 642.835938 452.039062 643.8125 C 453.984375 651.753906 455.242188 658.695312 455.242188 665.082031 C 455.234375 671.304688 454.074219 677.003906 451.164062 682.84375 C 448.25 688.671875 443.535156 694.671875 436.34375 701.242188 L 437.785156 702.820312 L 436.390625 701.203125 L 437.785156 702.820312 " fill-opacity="1" fill-rule="nonzero"/><path fill="rgb(74.119568%, 51.368713%, 100%)" d="M 363.273438 520.492188 C 362.363281 520.492188 361.410156 520.691406 360.511719 521.085938 L 306.675781 544.789062 C 303.878906 546.023438 302.652344 548.535156 303.304688 550.011719 L 310.382812 566.070312 C 311.058594 567.605469 314.019531 568.179688 316.507812 567.085938 L 370.339844 543.382812 C 371.902344 542.6875 373.136719 541.496094 373.652344 540.179688 C 373.855469 539.652344 374.03125 538.894531 373.722656 538.183594 L 366.636719 522.117188 C 366.195312 521.125 364.882812 520.492188 363.273438 520.492188 Z M 313.734375 578.816406 C 307.636719 578.816406 302.445312 575.652344 300.191406 570.550781 L 293.117188 554.5 C 289.886719 547.167969 293.957031 538.242188 302.179688 534.605469 L 356.019531 510.898438 C 358.324219 509.898438 360.828125 509.355469 363.273438 509.355469 C 369.382812 509.355469 374.582031 512.527344 376.824219 517.640625 L 383.902344 533.6875 C 385.34375 536.964844 385.394531 540.703125 384.035156 544.199219 C 382.449219 548.277344 379.085938 551.6875 374.824219 553.566406 L 320.996094 577.273438 C 318.652344 578.296875 316.214844 578.816406 313.734375 578.816406 " fill-opacity="1" fill-rule="nonzero"/><path fill="rgb(1.568604%, 2.349854%, 2.349854%)" d="M 363.273438 520.492188 L 363.273438 518.355469 C 362.039062 518.355469 360.8125 518.632812 359.652344 519.132812 L 305.808594 542.832031 C 304.339844 543.480469 303.171875 544.421875 302.34375 545.5 C 301.519531 546.585938 301 547.808594 300.992188 549.144531 C 300.992188 549.703125 301.09375 550.304688 301.351562 550.871094 L 308.429688 566.929688 C 308.929688 568.054688 309.855469 568.753906 310.78125 569.179688 C 311.726562 569.597656 312.742188 569.78125 313.804688 569.78125 C 314.972656 569.78125 316.191406 569.546875 317.359375 569.046875 L 317.367188 569.039062 L 371.199219 545.332031 C 373.203125 544.441406 374.847656 542.9375 375.648438 540.945312 C 375.832031 540.460938 376.015625 539.820312 376.023438 539.027344 C 376.023438 538.5 375.933594 537.910156 375.671875 537.324219 L 375.671875 537.316406 L 368.589844 521.257812 C 368.113281 520.175781 367.246094 519.457031 366.328125 519.007812 C 365.390625 518.558594 364.359375 518.355469 363.273438 518.355469 L 363.273438 522.617188 C 363.789062 522.617188 364.222656 522.734375 364.457031 522.851562 L 364.683594 522.996094 L 364.699219 523.011719 L 364.839844 522.902344 L 364.683594 522.976562 L 364.699219 523.011719 L 364.839844 522.902344 L 364.683594 522.976562 L 371.757812 539.042969 L 371.757812 539.035156 L 371.902344 538.96875 L 371.75 539 L 371.757812 539.035156 L 371.902344 538.96875 L 371.75 539 L 371.75 539.027344 L 371.660156 539.402344 C 371.425781 540.054688 370.601562 540.945312 369.472656 541.429688 L 315.648438 565.136719 L 315.65625 565.128906 C 315.0625 565.386719 314.394531 565.519531 313.804688 565.511719 C 313.269531 565.519531 312.800781 565.402344 312.535156 565.285156 L 312.308594 565.144531 L 312.300781 565.136719 L 312.117188 565.300781 L 312.335938 565.203125 L 312.300781 565.136719 L 312.117188 565.300781 L 312.335938 565.203125 L 305.257812 549.144531 L 305.082031 549.21875 L 305.265625 549.179688 L 305.257812 549.144531 L 305.082031 549.21875 L 305.265625 549.179688 L 305.265625 549.144531 C 305.257812 549.019531 305.359375 548.578125 305.734375 548.09375 C 306.101562 547.617188 306.703125 547.109375 307.535156 546.742188 L 361.371094 523.042969 L 361.363281 523.042969 C 362.003906 522.761719 362.6875 522.617188 363.273438 522.617188 Z M 313.734375 578.816406 L 313.734375 576.679688 C 308.363281 576.664062 304.03125 573.953125 302.144531 569.691406 L 295.066406 553.632812 C 294.441406 552.199219 294.140625 550.703125 294.140625 549.195312 C 294.125 544.230469 297.445312 539.019531 303.039062 536.558594 L 356.890625 512.859375 C 358.917969 511.96875 361.144531 511.492188 363.273438 511.492188 C 368.65625 511.507812 372.988281 514.226562 374.871094 518.5 L 381.949219 534.546875 C 382.566406 535.964844 382.882812 537.476562 382.882812 539.027344 C 382.882812 540.476562 382.609375 541.972656 382.039062 543.429688 C 380.6875 546.925781 377.734375 549.953125 373.960938 551.613281 L 320.128906 575.320312 C 318.050781 576.230469 315.921875 576.679688 313.734375 576.679688 L 313.734375 580.949219 C 316.515625 580.949219 319.253906 580.367188 321.847656 579.222656 L 375.683594 555.519531 C 380.4375 553.425781 384.210938 549.628906 386.023438 544.972656 C 386.773438 543.039062 387.15625 541.027344 387.15625 539.027344 C 387.15625 536.898438 386.722656 534.789062 385.855469 532.828125 L 378.777344 516.773438 C 376.164062 510.832031 370.117188 507.203125 363.273438 507.222656 C 360.519531 507.222656 357.730469 507.820312 355.167969 508.949219 L 301.320312 532.652344 C 294.285156 535.765625 289.886719 542.355469 289.871094 549.195312 C 289.871094 551.273438 290.285156 553.375 291.164062 555.359375 L 298.238281 571.417969 C 300.851562 577.347656 306.910156 580.96875 313.734375 580.949219 L 313.734375 578.816406 " fill-opacity="1" fill-rule="nonzero"/><path fill="rgb(74.119568%, 51.368713%, 100%)" d="M 383.46875 722.140625 C 386.414062 728.804688 444.480469 707.199219 440.082031 697.207031 C 435.675781 687.214844 374.386719 548.167969 370.347656 539.011719 C 366.320312 529.851562 309.898438 555.191406 313.746094 563.933594 C 317.601562 572.683594 380.539062 715.472656 383.46875 722.140625 " fill-opacity="1" fill-rule="nonzero"/><path fill="rgb(1.568604%, 2.349854%, 2.349854%)" d="M 383.46875 722.140625 L 381.515625 723.007812 C 381.765625 723.582031 382.183594 724.066406 382.625 724.398438 C 383.308594 724.90625 384.027344 725.160156 384.761719 725.316406 C 385.503906 725.46875 386.289062 725.523438 387.132812 725.523438 C 390.738281 725.515625 395.71875 724.457031 401.417969 722.789062 C 409.9375 720.277344 419.894531 716.332031 427.847656 712.105469 C 431.828125 709.984375 435.289062 707.808594 437.878906 705.621094 C 439.171875 704.523438 440.246094 703.421875 441.066406 702.253906 C 441.867188 701.085938 442.441406 699.792969 442.449219 698.332031 C 442.449219 697.664062 442.316406 696.980469 442.042969 696.347656 L 442.035156 696.339844 C 437.636719 686.355469 376.339844 547.308594 372.308594 538.152344 C 372.027344 537.507812 371.585938 536.941406 371.074219 536.5 C 370.308594 535.839844 369.398438 535.464844 368.464844 535.230469 C 367.511719 534.996094 366.503906 534.90625 365.417969 534.90625 C 361.46875 534.921875 356.371094 536.097656 350.730469 537.941406 C 342.277344 540.71875 332.730469 545.015625 325.175781 549.4375 C 321.40625 551.65625 318.132812 553.890625 315.714844 556.058594 C 314.496094 557.144531 313.496094 558.210938 312.734375 559.320312 C 311.984375 560.4375 311.425781 561.625 311.417969 563.015625 C 311.417969 563.609375 311.53125 564.242188 311.792969 564.808594 L 311.792969 564.800781 C 315.648438 573.542969 378.585938 716.339844 381.515625 722.996094 L 385.421875 721.28125 C 382.492188 714.613281 319.554688 571.824219 315.699219 563.074219 L 315.6875 563.066406 L 315.6875 563.015625 C 315.6875 562.941406 315.714844 562.707031 315.898438 562.347656 C 316.222656 561.664062 317.058594 560.613281 318.308594 559.472656 C 320.488281 557.453125 323.902344 555.109375 327.914062 552.789062 C 333.929688 549.3125 341.332031 545.875 348.242188 543.332031 C 351.699219 542.0625 355.027344 541.011719 357.980469 540.285156 C 360.9375 539.5625 363.53125 539.175781 365.417969 539.175781 C 366.535156 539.175781 367.386719 539.320312 367.855469 539.503906 C 368.097656 539.59375 368.230469 539.6875 368.296875 539.742188 L 368.398438 539.871094 C 372.4375 549.027344 433.722656 688.070312 438.128906 698.066406 L 438.121094 698.058594 L 438.179688 698.332031 C 438.179688 698.492188 438.128906 698.765625 437.9375 699.167969 C 437.585938 699.898438 436.710938 700.984375 435.382812 702.128906 C 433.070312 704.164062 429.457031 706.449219 425.242188 708.652344 C 418.902344 711.96875 411.164062 715.148438 404.097656 717.476562 C 400.558594 718.644531 397.195312 719.59375 394.257812 720.253906 C 391.335938 720.914062 388.824219 721.261719 387.132812 721.253906 C 386.289062 721.261719 385.65625 721.164062 385.371094 721.0625 L 385.230469 721.003906 L 385.203125 720.996094 L 384.835938 721.539062 L 385.421875 721.28125 L 385.203125 720.996094 L 384.835938 721.539062 L 385.421875 721.28125 L 383.46875 722.140625 " fill-opacity="1" fill-rule="nonzero"/><path fill="rgb(74.119568%, 51.368713%, 100%)" d="M 359.984375 668.84375 C 366.542969 671.429688 415.046875 650.570312 416.589844 643.921875 C 418.140625 637.273438 399.191406 595.414062 393.839844 592.304688 C 388.492188 589.183594 337.796875 610.503906 337.226562 617.226562 C 336.667969 623.941406 353.425781 666.265625 359.984375 668.84375 " fill-opacity="1" fill-rule="nonzero"/><path fill="rgb(1.568604%, 2.349854%, 2.349854%)" d="M 359.984375 668.84375 L 359.199219 670.839844 C 359.984375 671.140625 360.71875 671.199219 361.519531 671.207031 C 363.140625 671.199219 365.058594 670.863281 367.335938 670.3125 C 375.246094 668.394531 387.398438 663.664062 397.886719 658.675781 C 403.121094 656.183594 407.925781 653.636719 411.574219 651.3125 C 413.402344 650.152344 414.9375 649.050781 416.128906 647.984375 C 416.730469 647.449219 417.25 646.921875 417.683594 646.363281 C 418.109375 645.796875 418.476562 645.195312 418.667969 644.40625 C 418.785156 643.914062 418.808594 643.453125 418.808594 642.988281 C 418.800781 641.527344 418.492188 639.851562 417.976562 637.832031 C 416.171875 630.839844 411.757812 619.964844 407.191406 610.355469 C 404.90625 605.558594 402.59375 601.09375 400.535156 597.625 C 399.5 595.882812 398.539062 594.390625 397.644531 593.195312 C 397.195312 592.605469 396.761719 592.078125 396.328125 591.628906 C 395.894531 591.167969 395.460938 590.785156 394.910156 590.460938 C 393.957031 589.925781 393.097656 589.875 392.164062 589.859375 C 390.5625 589.859375 388.660156 590.191406 386.371094 590.742188 C 378.4375 592.671875 366.109375 597.425781 355.554688 602.429688 C 350.28125 604.933594 345.472656 607.492188 341.859375 609.828125 C 340.058594 611.003906 338.554688 612.113281 337.394531 613.207031 C 336.820312 613.757812 336.328125 614.300781 335.917969 614.902344 C 335.523438 615.5 335.183594 616.175781 335.101562 617.054688 C 335.089844 617.210938 335.082031 617.386719 335.082031 617.585938 C 335.089844 618.90625 335.382812 620.457031 335.859375 622.417969 C 337.519531 629.179688 341.640625 640.375 346.089844 650.320312 C 348.316406 655.28125 350.621094 659.910156 352.765625 663.507812 C 353.851562 665.308594 354.878906 666.851562 355.894531 668.085938 C 356.394531 668.703125 356.898438 669.238281 357.429688 669.703125 C 357.957031 670.164062 358.507812 670.5625 359.199219 670.839844 L 359.984375 668.84375 L 360.761719 666.859375 C 360.734375 666.859375 360.46875 666.710938 360.117188 666.375 C 359.449219 665.757812 358.5 664.566406 357.488281 663.007812 C 353.894531 657.5 349.269531 647.484375 345.632812 638.15625 C 343.804688 633.492188 342.21875 628.988281 341.089844 625.300781 C 340.53125 623.460938 340.082031 621.816406 339.789062 620.472656 C 339.488281 619.148438 339.347656 618.085938 339.355469 617.585938 L 339.363281 617.410156 L 338.855469 617.363281 L 339.347656 617.503906 L 339.363281 617.402344 L 338.855469 617.363281 L 339.347656 617.503906 L 339.289062 617.488281 L 339.347656 617.503906 L 339.289062 617.488281 L 339.347656 617.503906 C 339.347656 617.476562 339.496094 617.1875 339.839844 616.8125 C 340.472656 616.09375 341.691406 615.09375 343.3125 614 C 348.976562 610.128906 359.390625 605.066406 369.296875 601.0625 C 374.246094 599.058594 379.085938 597.300781 383.160156 596.066406 C 385.195312 595.441406 387.03125 594.949219 388.582031 594.621094 C 390.117188 594.289062 391.386719 594.121094 392.164062 594.121094 C 392.4375 594.121094 392.648438 594.148438 392.757812 594.171875 L 392.839844 594.1875 L 392.988281 593.753906 L 392.757812 594.148438 L 392.839844 594.1875 L 392.988281 593.753906 L 392.757812 594.148438 L 392.765625 594.148438 C 392.773438 594.148438 393.039062 594.347656 393.363281 594.707031 C 393.992188 595.382812 394.867188 596.589844 395.84375 598.132812 C 399.28125 603.582031 404.039062 613.214844 407.859375 622.300781 C 409.78125 626.835938 411.472656 631.257812 412.675781 634.953125 C 413.277344 636.796875 413.753906 638.464844 414.070312 639.851562 C 414.394531 641.226562 414.546875 642.351562 414.546875 642.988281 C 414.546875 643.246094 414.519531 643.410156 414.503906 643.445312 L 414.835938 643.511719 L 414.511719 643.410156 L 414.511719 643.4375 L 414.835938 643.511719 L 414.511719 643.410156 L 414.503906 643.4375 C 414.453125 643.546875 414.234375 643.871094 413.84375 644.269531 C 413.117188 645.023438 411.832031 646.03125 410.179688 647.125 C 404.363281 651.003906 394.042969 656.03125 384.242188 660.019531 C 379.34375 662.023438 374.554688 663.765625 370.515625 665.007812 C 368.503906 665.625 366.667969 666.117188 365.125 666.441406 C 363.589844 666.777344 362.3125 666.933594 361.519531 666.933594 C 361.277344 666.933594 361.078125 666.917969 360.945312 666.902344 L 360.800781 666.867188 L 360.761719 666.859375 L 359.984375 668.84375 " fill-opacity="1" fill-rule="nonzero"/><path fill="rgb(74.119568%, 51.368713%, 100%)" d="M 363.304688 661.289062 C 368.5625 663.347656 407.484375 646.605469 408.726562 641.277344 C 409.972656 635.953125 394.765625 602.355469 390.46875 599.84375 C 386.179688 597.351562 345.496094 614.46875 345.039062 619.855469 C 344.578125 625.234375 358.03125 659.21875 363.304688 661.289062 " fill-opacity="1" fill-rule="nonzero"/><path fill="rgb(1.568604%, 2.349854%, 2.349854%)" d="M 363.304688 661.289062 L 362.523438 663.28125 C 363.230469 663.539062 363.867188 663.589844 364.53125 663.597656 C 365.886719 663.589844 367.445312 663.316406 369.289062 662.871094 C 375.699219 661.320312 385.453125 657.507812 393.890625 653.496094 C 398.113281 651.496094 401.976562 649.441406 404.929688 647.566406 C 406.410156 646.625 407.660156 645.730469 408.644531 644.847656 C 409.136719 644.40625 409.570312 643.972656 409.945312 643.488281 C 410.304688 643.003906 410.640625 642.484375 410.816406 641.761719 L 410.816406 641.753906 C 410.914062 641.316406 410.941406 640.925781 410.941406 640.527344 C 410.929688 639.292969 410.664062 637.921875 410.253906 636.289062 C 408.785156 630.625 405.242188 621.890625 401.570312 614.167969 C 399.734375 610.304688 397.871094 606.710938 396.210938 603.90625 C 395.375 602.496094 394.59375 601.296875 393.867188 600.3125 C 393.5 599.828125 393.140625 599.394531 392.773438 599.011719 C 392.40625 598.636719 392.046875 598.292969 391.546875 598 C 390.660156 597.515625 389.917969 597.476562 389.132812 597.457031 C 387.789062 597.46875 386.238281 597.742188 384.386719 598.183594 C 377.96875 599.746094 368.070312 603.566406 359.574219 607.59375 C 355.328125 609.613281 351.449219 611.671875 348.527344 613.566406 C 347.066406 614.515625 345.839844 615.417969 344.878906 616.320312 C 344.40625 616.777344 343.988281 617.238281 343.636719 617.753906 C 343.292969 618.269531 342.984375 618.871094 342.910156 619.671875 L 342.910156 619.65625 L 342.886719 620.148438 C 342.894531 621.273438 343.136719 622.535156 343.519531 624.125 C 344.871094 629.605469 348.183594 638.589844 351.765625 646.589844 C 353.558594 650.585938 355.410156 654.304688 357.148438 657.21875 C 358.023438 658.675781 358.859375 659.929688 359.691406 660.945312 C 360.109375 661.453125 360.527344 661.898438 360.976562 662.289062 C 361.429688 662.679688 361.902344 663.03125 362.523438 663.273438 L 362.523438 663.28125 L 363.304688 661.289062 L 364.082031 659.300781 C 363.941406 659.253906 363.222656 658.601562 362.464844 657.550781 C 361.101562 655.699219 359.390625 652.664062 357.671875 649.140625 C 355.085938 643.84375 352.425781 637.421875 350.421875 631.859375 C 349.429688 629.082031 348.59375 626.511719 348.019531 624.433594 C 347.734375 623.402344 347.507812 622.484375 347.367188 621.734375 C 347.214844 621 347.160156 620.414062 347.160156 620.148438 L 347.167969 620.054688 L 347.167969 620.039062 L 346.574219 619.988281 L 347.125 620.230469 L 347.167969 620.039062 L 346.574219 619.988281 L 347.125 620.230469 C 347.125 620.222656 347.257812 619.988281 347.542969 619.695312 C 348.078125 619.136719 349.070312 618.328125 350.378906 617.460938 C 354.96875 614.382812 363.28125 610.363281 371.132812 607.191406 C 375.0625 605.609375 378.902344 604.214844 382.117188 603.238281 C 383.71875 602.753906 385.171875 602.363281 386.378906 602.105469 C 387.589844 601.847656 388.574219 601.730469 389.132812 601.730469 C 389.335938 601.730469 389.476562 601.746094 389.527344 601.753906 L 389.550781 601.761719 L 389.703125 601.164062 L 389.394531 601.6875 L 389.550781 601.761719 L 389.703125 601.164062 L 389.394531 601.6875 L 389.492188 601.519531 L 389.382812 601.679688 L 389.394531 601.6875 L 389.492188 601.519531 L 389.382812 601.679688 C 389.394531 601.6875 389.609375 601.863281 389.867188 602.164062 C 390.371094 602.722656 391.070312 603.707031 391.855469 604.957031 C 394.609375 609.371094 398.378906 617.054688 401.410156 624.261719 C 402.929688 627.863281 404.265625 631.367188 405.207031 634.277344 C 405.683594 635.738281 406.058594 637.046875 406.300781 638.132812 C 406.558594 639.207031 406.667969 640.074219 406.667969 640.527344 L 406.660156 640.734375 L 406.652344 640.800781 L 406.652344 640.792969 L 407.191406 640.917969 L 406.675781 640.699219 L 406.652344 640.792969 L 407.191406 640.917969 L 406.675781 640.699219 L 406.726562 640.71875 L 406.675781 640.699219 L 406.726562 640.71875 L 406.675781 640.699219 C 406.675781 640.726562 406.515625 640.960938 406.226562 641.261719 C 405.675781 641.828125 404.664062 642.628906 403.347656 643.496094 C 398.722656 646.574219 390.453125 650.617188 382.601562 653.8125 C 378.679688 655.40625 374.847656 656.808594 371.625 657.800781 C 370.015625 658.292969 368.554688 658.683594 367.335938 658.945312 C 366.117188 659.203125 365.117188 659.328125 364.53125 659.328125 L 364.132812 659.300781 L 364.058594 659.285156 L 364.050781 659.285156 L 363.949219 659.628906 L 364.074219 659.292969 L 364.050781 659.285156 L 363.949219 659.628906 L 364.074219 659.292969 L 364.082031 659.300781 L 363.304688 661.289062 " fill-opacity="1" fill-rule="nonzero"/><path fill="rgb(74.119568%, 51.368713%, 100%)" d="M 347.910156 621.230469 L 406.574219 642.609375 " fill-opacity="1" fill-rule="nonzero"/><path fill="rgb(1.568604%, 2.349854%, 2.349854%)" d="M 347.175781 623.234375 L 350.597656 624.476562 C 351.699219 624.886719 352.925781 624.308594 353.332031 623.199219 C 353.734375 622.097656 353.167969 620.875 352.058594 620.464844 L 348.636719 619.222656 C 347.527344 618.820312 346.296875 619.386719 345.898438 620.496094 C 345.496094 621.597656 346.066406 622.832031 347.175781 623.234375 Z M 354.019531 625.726562 L 357.429688 626.972656 C 358.542969 627.378906 359.769531 626.804688 360.175781 625.695312 C 360.578125 624.59375 360.011719 623.367188 358.898438 622.957031 L 355.476562 621.714844 C 354.367188 621.308594 353.140625 621.882812 352.742188 622.992188 C 352.332031 624.09375 352.90625 625.320312 354.019531 625.726562 Z M 360.851562 628.222656 L 364.273438 629.464844 C 365.382812 629.875 366.609375 629.296875 367.011719 628.1875 C 367.421875 627.085938 366.84375 625.863281 365.734375 625.453125 L 362.320312 624.210938 C 361.210938 623.800781 359.984375 624.375 359.574219 625.484375 C 359.175781 626.585938 359.742188 627.8125 360.851562 628.222656 Z M 367.695312 630.714844 L 371.117188 631.960938 C 372.226562 632.367188 373.453125 631.792969 373.855469 630.683594 C 374.253906 629.582031 373.6875 628.355469 372.578125 627.945312 L 369.15625 626.703125 C 368.054688 626.296875 366.828125 626.871094 366.417969 627.980469 C 366.019531 629.082031 366.585938 630.308594 367.695312 630.714844 Z M 374.539062 633.210938 L 377.960938 634.453125 C 379.0625 634.863281 380.296875 634.285156 380.699219 633.175781 C 381.097656 632.074219 380.53125 630.851562 379.421875 630.441406 L 376 629.199219 C 374.890625 628.789062 373.664062 629.363281 373.261719 630.472656 C 372.851562 631.574219 373.429688 632.800781 374.539062 633.210938 Z M 381.382812 635.703125 L 384.792969 636.949219 C 385.90625 637.355469 387.132812 636.78125 387.539062 635.671875 C 387.941406 634.570312 387.375 633.34375 386.261719 632.933594 L 382.84375 631.691406 C 381.730469 631.285156 380.503906 631.859375 380.105469 632.96875 C 379.695312 634.070312 380.273438 635.296875 381.382812 635.703125 Z M 388.214844 638.199219 L 391.636719 639.441406 C 392.746094 639.851562 393.972656 639.273438 394.375 638.164062 C 394.785156 637.0625 394.207031 635.835938 393.105469 635.429688 L 389.683594 634.1875 C 388.574219 633.777344 387.347656 634.351562 386.949219 635.460938 C 386.539062 636.5625 387.105469 637.789062 388.214844 638.199219 Z M 395.058594 640.691406 L 398.480469 641.933594 C 399.589844 642.34375 400.816406 641.769531 401.21875 640.660156 C 401.625 639.558594 401.050781 638.332031 399.941406 637.921875 L 396.519531 636.671875 C 395.417969 636.273438 394.191406 636.847656 393.78125 637.957031 C 393.382812 639.058594 393.949219 640.285156 395.058594 640.691406 Z M 401.902344 643.1875 L 405.324219 644.429688 C 406.433594 644.839844 407.660156 644.261719 408.0625 643.160156 C 408.460938 642.050781 407.894531 640.824219 406.785156 640.417969 L 403.363281 639.175781 C 402.261719 638.765625 401.035156 639.339844 400.625 640.449219 C 400.226562 641.550781 400.792969 642.777344 401.902344 643.1875 " fill-opacity="1" fill-rule="nonzero"/><path fill="rgb(74.119568%, 51.368713%, 100%)" d="M 366.535156 661.238281 L 387.941406 602.605469 " fill-opacity="1" fill-rule="nonzero"/><path fill="rgb(1.568604%, 2.349854%, 2.349854%)" d="M 368.546875 661.972656 L 369.789062 658.550781 C 370.199219 657.441406 369.625 656.214844 368.523438 655.816406 C 367.410156 655.414062 366.183594 655.984375 365.785156 657.09375 L 364.53125 660.511719 C 364.125 661.621094 364.699219 662.839844 365.808594 663.246094 C 366.917969 663.648438 368.136719 663.082031 368.546875 661.972656 Z M 371.042969 655.132812 L 372.285156 651.71875 C 372.695312 650.609375 372.117188 649.382812 371.015625 648.976562 C 369.90625 648.574219 368.679688 649.140625 368.28125 650.25 L 367.027344 653.671875 C 366.617188 654.78125 367.195312 656.007812 368.304688 656.40625 C 369.414062 656.816406 370.632812 656.242188 371.042969 655.132812 Z M 373.539062 648.300781 L 374.789062 644.878906 C 375.191406 643.769531 374.621094 642.542969 373.511719 642.144531 C 372.402344 641.734375 371.175781 642.3125 370.773438 643.410156 L 369.523438 646.832031 C 369.113281 647.941406 369.691406 649.167969 370.800781 649.566406 C 371.910156 649.976562 373.128906 649.410156 373.539062 648.300781 Z M 376.03125 641.460938 L 377.285156 638.039062 C 377.683594 636.929688 377.117188 635.703125 376.007812 635.304688 C 374.898438 634.894531 373.671875 635.472656 373.269531 636.582031 L 372.019531 640 C 371.617188 641.101562 372.183594 642.328125 373.296875 642.734375 C 374.40625 643.136719 375.632812 642.570312 376.03125 641.460938 Z M 378.527344 634.621094 L 379.78125 631.199219 C 380.179688 630.097656 379.613281 628.871094 378.503906 628.464844 C 377.394531 628.0625 376.164062 628.628906 375.765625 629.742188 L 374.511719 633.160156 C 374.113281 634.261719 374.679688 635.488281 375.789062 635.894531 C 376.898438 636.296875 378.128906 635.730469 378.527344 634.621094 Z M 381.023438 627.78125 L 382.273438 624.359375 C 382.675781 623.257812 382.109375 622.03125 380.996094 621.625 C 379.886719 621.222656 378.660156 621.789062 378.261719 622.898438 L 377.007812 626.320312 C 376.609375 627.429688 377.175781 628.65625 378.285156 629.054688 C 379.394531 629.464844 380.621094 628.890625 381.023438 627.78125 Z M 383.519531 620.949219 L 384.769531 617.527344 C 385.171875 616.417969 384.601562 615.191406 383.492188 614.792969 C 382.382812 614.382812 381.15625 614.949219 380.753906 616.058594 L 379.503906 619.480469 C 379.101562 620.589844 379.671875 621.816406 380.78125 622.214844 C 381.890625 622.625 383.117188 622.050781 383.519531 620.949219 Z M 386.011719 614.109375 L 387.265625 610.6875 C 387.664062 609.578125 387.097656 608.351562 385.988281 607.953125 C 384.878906 607.542969 383.652344 608.121094 383.25 609.230469 L 382 612.640625 C 381.597656 613.75 382.167969 614.976562 383.277344 615.382812 C 384.386719 615.785156 385.613281 615.21875 386.011719 614.109375 Z M 388.507812 607.269531 L 389.761719 603.847656 C 390.160156 602.738281 389.59375 601.511719 388.484375 601.113281 C 387.375 600.710938 386.148438 601.277344 385.746094 602.386719 L 384.496094 605.808594 C 384.09375 606.910156 384.660156 608.144531 385.769531 608.542969 C 386.882812 608.945312 388.109375 608.378906 388.507812 607.269531 " fill-opacity="1" fill-rule="nonzero"/><path fill="rgb(74.119568%, 51.368713%, 100%)" d="M 789.757812 410.210938 C 784.707031 395.003906 750.6875 390.78125 745.128906 358.851562 C 745.371094 358.59375 745.503906 358.441406 745.503906 358.441406 C 740.996094 250.296875 691.777344 152.199219 627.847656 92.457031 C 551.996094 21.589844 372.511719 24.222656 274.707031 39.714844 C 126.253906 63.210938 19.839844 218.253906 28.859375 434.558594 C 28.859375 434.558594 28.953125 434.691406 29.152344 434.925781 C 24.535156 495.074219 20.875 531.226562 48.835938 542.898438 C 101.863281 564.984375 272.527344 598.527344 289.117188 584.964844 C 315.921875 563.042969 408.179688 455.042969 447.667969 453.402344 C 559.023438 448.753906 709.894531 432.546875 765.546875 440.554688 C 786.753906 443.617188 795.046875 426.191406 789.757812 410.210938 " fill-opacity="1" fill-rule="nonzero"/><path fill="rgb(1.568604%, 2.349854%, 2.349854%)" d="M 789.757812 410.210938 L 791.777344 409.542969 C 791.042969 407.316406 789.78125 405.339844 788.222656 403.542969 C 785.484375 400.417969 781.8125 397.789062 777.808594 395.078125 C 771.78125 391.039062 764.964844 386.84375 759.265625 381.1875 C 753.574219 375.527344 748.984375 368.484375 747.230469 358.484375 L 745.128906 358.851562 L 746.695312 360.300781 C 746.945312 360.027344 747.089844 359.867188 747.097656 359.859375 C 747.464844 359.441406 747.664062 358.910156 747.640625 358.351562 C 743.089844 249.609375 693.671875 151.066406 629.296875 90.898438 C 603.695312 66.992188 566.757812 51.484375 525.300781 41.882812 C 483.84375 32.289062 437.820312 28.621094 393.949219 28.621094 C 349.546875 28.621094 307.359375 32.382812 274.363281 37.605469 C 202.453125 48.980469 140.324219 91.007812 96.289062 155.585938 C 52.226562 220.183594 26.1875 307.324219 26.1875 409.183594 C 26.1875 417.574219 26.363281 426.066406 26.722656 434.648438 C 26.738281 435.074219 26.890625 435.492188 27.140625 435.835938 C 27.15625 435.859375 27.273438 436.007812 27.484375 436.269531 L 29.152344 434.925781 L 27.015625 434.765625 C 25.371094 456.296875 23.828125 474.789062 23.828125 490.289062 C 23.835938 504.183594 25.046875 515.695312 28.675781 524.894531 C 30.496094 529.492188 32.941406 533.503906 36.136719 536.859375 C 39.339844 540.210938 43.289062 542.898438 48.011719 544.867188 C 59.3125 549.570312 75.691406 554.726562 94.753906 559.847656 C 123.324219 567.53125 157.890625 575.113281 189.976562 580.785156 C 222.082031 586.457031 251.65625 590.226562 270.476562 590.226562 C 275.25 590.226562 279.335938 589.984375 282.667969 589.449219 C 285.996094 588.890625 288.574219 588.125 290.460938 586.625 L 290.46875 586.625 C 297.339844 580.992188 308.113281 570.132812 321.164062 556.886719 C 340.714844 537.03125 365.292969 511.875 388.617188 491.582031 C 400.273438 481.429688 411.617188 472.503906 421.804688 466.082031 C 431.976562 459.640625 441.039062 455.777344 447.75 455.527344 C 537.71875 451.773438 653.375 440.496094 723.699219 440.496094 C 740.488281 440.496094 754.691406 441.148438 765.238281 442.667969 C 766.992188 442.925781 768.660156 443.042969 770.261719 443.042969 C 777.730469 443.058594 783.671875 440.332031 787.597656 435.960938 C 791.527344 431.589844 793.4375 425.734375 793.4375 419.59375 C 793.4375 416.28125 792.886719 412.878906 791.785156 409.542969 L 789.757812 410.210938 L 787.722656 410.886719 C 788.6875 413.796875 789.164062 416.757812 789.164062 419.59375 C 789.164062 424.867188 787.527344 429.652344 784.425781 433.097656 C 781.3125 436.527344 776.730469 438.753906 770.261719 438.769531 C 768.878906 438.769531 767.410156 438.664062 765.847656 438.445312 C 754.941406 436.867188 740.605469 436.234375 723.699219 436.234375 C 652.988281 436.234375 537.386719 447.519531 447.574219 451.265625 C 442.167969 451.5 436.175781 453.484375 429.65625 456.714844 C 418.273438 462.367188 405.25 471.910156 391.664062 483.347656 C 371.285156 500.496094 349.671875 521.933594 330.945312 540.878906 C 321.582031 550.347656 312.945312 559.195312 305.558594 566.5625 C 298.179688 573.925781 292.039062 579.816406 287.757812 583.3125 L 287.765625 583.3125 C 287 583.96875 284.960938 584.769531 281.984375 585.230469 C 279.003906 585.722656 275.097656 585.964844 270.476562 585.957031 C 258.28125 585.964844 241.09375 584.304688 221.53125 581.527344 C 192.191406 577.355469 157.492188 570.65625 125.988281 563.277344 C 94.492188 555.894531 66.136719 547.792969 49.65625 540.921875 C 45.417969 539.152344 42.011719 536.816406 39.234375 533.914062 C 35.078125 529.558594 32.296875 523.828125 30.546875 516.5625 C 28.792969 509.296875 28.101562 500.523438 28.101562 490.289062 C 28.101562 475.0625 29.628906 456.636719 31.28125 435.09375 C 31.320312 434.550781 31.15625 434.015625 30.8125 433.589844 L 30.621094 433.347656 L 30.578125 433.296875 L 30.578125 433.289062 L 28.859375 434.558594 L 30.996094 434.476562 C 30.636719 425.941406 30.460938 417.515625 30.460938 409.183594 C 30.460938 308.050781 56.324219 221.75 99.808594 157.996094 C 143.3125 94.234375 204.375 53.019531 275.03125 41.824219 C 307.785156 36.636719 349.785156 32.890625 393.949219 32.890625 C 437.578125 32.890625 483.316406 36.546875 524.339844 46.039062 C 565.367188 55.53125 601.625 70.878906 626.386719 94.027344 C 689.882812 153.332031 738.902344 250.980469 743.367188 358.535156 L 745.503906 358.441406 L 743.910156 357.023438 L 743.816406 357.117188 L 743.558594 357.40625 C 743.109375 357.890625 742.90625 358.566406 743.023438 359.21875 C 744.46875 367.558594 747.816406 374.175781 752.0625 379.539062 C 758.421875 387.578125 766.714844 392.835938 773.703125 397.480469 C 777.199219 399.789062 780.367188 401.960938 782.8125 404.152344 C 785.269531 406.347656 786.945312 408.53125 787.730469 410.886719 L 789.757812 410.210938 " fill-opacity="1" fill-rule="nonzero"/><path fill="rgb(74.119568%, 51.368713%, 100%)" d="M 692.011719 438.972656 C 692.253906 438.703125 712.15625 408.625 699.171875 396.65625 C 686.1875 384.691406 666.058594 369.695312 665.25 361.8125 C 655.09375 263.191406 608.511719 174.980469 549.320312 119.667969 C 473.460938 48.789062 293.984375 51.433594 196.171875 66.917969 " fill-opacity="1" fill-rule="nonzero"/><path fill="rgb(1.568604%, 2.349854%, 2.349854%)" d="M 693.597656 440.398438 L 693.714844 440.253906 L 693.847656 440.082031 C 694.140625 439.644531 694.980469 438.335938 696.132812 436.351562 C 697.859375 433.375 700.222656 428.925781 702.183594 423.921875 C 704.128906 418.910156 705.695312 413.355469 705.707031 408.039062 C 705.707031 405.636719 705.378906 403.277344 704.570312 401.066406 C 703.777344 398.855469 702.476562 396.796875 700.625 395.085938 C 694.054688 389.039062 685.785156 382.300781 679.09375 376.132812 C 675.753906 373.054688 672.808594 370.121094 670.722656 367.550781 C 669.671875 366.265625 668.84375 365.082031 668.277344 364.054688 C 667.710938 363.03125 667.425781 362.171875 667.375 361.59375 C 657.152344 262.433594 610.371094 173.8125 550.769531 118.109375 C 525.167969 94.191406 488.230469 78.6875 446.773438 69.085938 C 405.316406 59.492188 359.292969 55.820312 315.429688 55.820312 C 271.019531 55.820312 228.824219 59.585938 195.835938 64.8125 C 194.667969 64.996094 193.875 66.089844 194.058594 67.257812 C 194.242188 68.417969 195.335938 69.21875 196.503906 69.027344 C 229.257812 63.839844 271.257812 60.09375 315.429688 60.09375 C 359.050781 60.09375 404.796875 63.746094 445.8125 73.246094 C 486.839844 82.730469 523.097656 98.078125 547.859375 121.226562 C 606.648438 176.148438 653.039062 263.941406 663.121094 362.039062 C 663.269531 363.429688 663.796875 364.765625 664.53125 366.117188 C 665.832031 368.46875 667.84375 370.914062 670.304688 373.523438 C 677.683594 381.296875 689.289062 390.449219 697.726562 398.230469 C 699.054688 399.457031 699.957031 400.882812 700.554688 402.519531 C 701.148438 404.160156 701.433594 406.023438 701.433594 408.039062 C 701.449219 414.230469 698.738281 421.738281 695.925781 427.59375 C 694.53125 430.527344 693.121094 433.066406 692.054688 434.875 C 691.519531 435.777344 691.078125 436.5 690.757812 436.992188 C 690.601562 437.234375 690.476562 437.425781 690.390625 437.554688 L 690.300781 437.6875 L 690.292969 437.695312 L 690.828125 438.070312 L 690.300781 437.6875 L 690.292969 437.695312 L 690.828125 438.070312 L 690.300781 437.6875 L 691.878906 438.84375 L 690.425781 437.535156 L 690.300781 437.6875 L 691.878906 438.84375 L 690.425781 437.535156 C 689.632812 438.410156 689.699219 439.761719 690.585938 440.554688 C 691.453125 441.347656 692.804688 441.273438 693.597656 440.40625 " fill-opacity="1" fill-rule="nonzero"/><path fill="rgb(74.119568%, 51.368713%, 100%)" d="M 745.128906 358.851562 C 745.371094 358.59375 745.503906 358.441406 745.503906 358.441406 C 744.734375 339.90625 758.53125 327.988281 742.03125 320.765625 C 586.703125 252.871094 255.605469 450.65625 30.914062 344.605469 C 15.28125 351.878906 14.921875 377.6875 28.859375 388.304688 C 28.859375 388.304688 28.953125 388.4375 29.152344 388.671875 C 202.664062 492.546875 501.601562 302.855469 745.128906 358.851562 " fill-opacity="1" fill-rule="nonzero"/><path fill="rgb(1.568604%, 2.349854%, 2.349854%)" d="M 745.128906 358.851562 L 746.695312 360.300781 C 746.945312 360.027344 747.089844 359.867188 747.097656 359.859375 C 747.464844 359.441406 747.664062 358.902344 747.640625 358.351562 C 747.613281 357.867188 747.605469 357.390625 747.605469 356.914062 C 747.605469 351.828125 748.714844 347.222656 749.882812 342.976562 C 751.035156 338.722656 752.289062 334.871094 752.3125 331.082031 C 752.320312 328.679688 751.730469 326.234375 750.160156 324.117188 C 748.609375 322 746.222656 320.273438 742.882812 318.8125 C 718.773438 308.277344 690.644531 304.089844 659.515625 304.089844 C 595.625 304.097656 518.984375 321.722656 438.078125 339.296875 C 357.1875 356.875 272.070312 374.417969 191.496094 374.40625 C 135.035156 374.40625 80.839844 365.808594 31.832031 342.675781 C 31.253906 342.402344 30.585938 342.402344 30.011719 342.667969 C 25.488281 344.769531 22.109375 348.289062 19.914062 352.453125 C 17.703125 356.617188 16.640625 361.410156 16.640625 366.257812 C 16.652344 375.175781 20.230469 384.382812 27.566406 390.007812 L 28.859375 388.304688 L 27.164062 389.605469 C 27.175781 389.621094 27.28125 389.757812 27.484375 390.015625 C 27.640625 390.207031 27.832031 390.375 28.050781 390.507812 C 67.054688 413.855469 112.253906 422.480469 161.472656 422.480469 C 232.796875 422.472656 312.710938 404.402344 395.308594 386.394531 C 477.902344 368.375 563.171875 350.402344 645.027344 350.410156 C 678.96875 350.410156 712.316406 353.496094 744.644531 360.9375 C 745.394531 361.101562 746.179688 360.871094 746.695312 360.300781 L 745.128906 358.851562 L 745.601562 356.773438 C 712.890625 349.25 679.226562 346.136719 645.027344 346.136719 C 562.554688 346.136719 477.015625 364.207031 394.398438 382.222656 C 311.785156 400.25 232.078125 418.21875 161.472656 418.207031 C 112.726562 418.207031 68.382812 409.667969 30.246094 386.835938 L 29.152344 388.671875 L 30.8125 387.328125 L 30.613281 387.078125 L 30.554688 387.011719 L 30.152344 386.613281 C 24.121094 382.03125 20.90625 374.066406 20.914062 366.257812 C 20.914062 362.039062 21.851562 357.898438 23.6875 354.445312 C 25.523438 350.992188 28.207031 348.222656 31.8125 346.546875 L 30.914062 344.605469 L 30.003906 346.539062 C 79.757812 370.019531 134.617188 378.679688 191.496094 378.679688 C 272.6875 378.679688 358.066406 361.054688 438.988281 343.46875 C 519.902344 325.878906 596.394531 308.34375 659.515625 308.359375 C 690.265625 308.351562 717.8125 312.503906 741.171875 322.722656 C 744.078125 323.992188 745.761719 325.335938 746.714844 326.636719 C 747.664062 327.953125 748.023438 329.304688 748.039062 331.082031 C 748.058594 333.851562 746.964844 337.523438 745.761719 341.851562 C 744.578125 346.179688 743.332031 351.210938 743.332031 356.914062 C 743.332031 357.449219 743.34375 357.992188 743.367188 358.535156 L 745.503906 358.441406 L 743.910156 357.023438 L 743.816406 357.117188 L 743.558594 357.40625 L 745.128906 358.851562 L 745.601562 356.773438 L 745.128906 358.851562 " fill-opacity="1" fill-rule="nonzero"/></svg>