<svg xmlns="http://www.w3.org/2000/svg" xmlns:xlink="http://www.w3.org/1999/xlink" width="1080" zoomAndPan="magnify" viewBox="0 0 810 809.999993" height="1080" preserveAspectRatio="xMidYMid meet" version="1.0"><defs><clipPath id="id1"><path d="M 11 115.609375 L 562 115.609375 L 562 638 L 11 638 Z M 11 115.609375 " clip-rule="nonzero"/></clipPath><clipPath id="id2"><path d="M 323 544 L 474 544 L 474 694.609375 L 323 694.609375 Z M 323 544 " clip-rule="nonzero"/></clipPath></defs><path fill="rgb(74.119568%, 51.368713%, 100%)" d="M 424.753906 601.328125 C 424.753906 601.328125 484.253906 539.484375 523.867188 532.027344 C 549.710938 527.164062 600.542969 550.644531 600.542969 550.644531 L 630.324219 482.328125 C 630.324219 482.328125 586.15625 451.996094 574.410156 429.09375 C 555.199219 391.644531 557.039062 304.011719 557.039062 304.011719 Z M 424.753906 601.328125 " fill-opacity="1" fill-rule="nonzero"/><g clip-path="url(#id1)"><path fill="rgb(74.119568%, 51.368713%, 100%)" d="M 215.484375 117.96875 C 120.601562 128.363281 38.082031 204.785156 19.492188 298.296875 C 0.671875 372.273438 13.914062 450.183594 64.003906 507.113281 C 110.84375 562.691406 176.996094 598.382812 244.53125 622.558594 C 302.628906 642.484375 383.78125 648.257812 432.121094 604.589844 C 453.21875 585.320312 457.574219 554.84375 471.035156 530.53125 C 501.304688 461.867188 531.613281 393.222656 561.871094 324.558594 C 558.5625 261.082031 508.324219 213.105469 458.269531 180.402344 C 397.300781 142.230469 326.179688 118.40625 254.085938 115.886719 C 241.199219 115.671875 228.230469 116.277344 215.488281 117.960938 Z M 215.484375 117.96875 " fill-opacity="1" fill-rule="nonzero"/></g><path fill="rgb(100%, 100%, 100%)" d="M 447.941406 567.789062 C 447.941406 567.789062 494.023438 519.898438 524.699219 514.125 C 544.714844 510.355469 584.082031 528.539062 584.082031 528.539062 L 607.144531 475.632812 C 607.144531 475.632812 572.941406 452.144531 563.84375 434.410156 C 548.964844 405.40625 550.394531 337.542969 550.394531 337.542969 Z M 447.941406 567.789062 " fill-opacity="1" fill-rule="nonzero"/><path fill="rgb(74.119568%, 51.368713%, 100%)" d="M 577.820312 439.660156 L 577.25 440.800781 C 573.5625 442.335938 558.355469 448.921875 552.277344 455.550781 C 540.492188 468.40625 532.480469 485.640625 530.058594 502.914062 C 528.886719 511.277344 534.109375 527.894531 534.109375 527.894531 L 534.417969 527.480469 L 534.054688 528.15625 L 752.609375 629.425781 C 790.355469 627.363281 809.167969 547.433594 801.199219 529.816406 Z M 577.820312 439.660156 " fill-opacity="1" fill-rule="nonzero"/><g clip-path="url(#id2)"><path fill="rgb(74.119568%, 51.368713%, 100%)" d="M 398.355469 544.140625 C 356.867188 544.140625 323.128906 577.890625 323.128906 619.394531 C 323.128906 660.902344 356.867188 694.648438 398.355469 694.648438 C 439.84375 694.648438 473.578125 660.902344 473.578125 619.394531 C 473.578125 577.890625 439.84375 544.140625 398.355469 544.140625 Z M 398.355469 544.140625 " fill-opacity="1" fill-rule="nonzero"/></g><path fill="rgb(100%, 100%, 100%)" d="M 397.855469 545.921875 C 435.402344 545.921875 465.761719 576.292969 465.761719 613.851562 C 465.761719 651.40625 435.398438 681.78125 397.855469 681.78125 C 360.3125 681.78125 329.953125 651.40625 329.953125 613.851562 C 329.953125 576.292969 360.3125 545.921875 397.855469 545.921875 Z M 397.855469 545.921875 " fill-opacity="1" fill-rule="nonzero"/><path fill="rgb(74.119568%, 51.368713%, 100%)" d="M 376.691406 551.488281 C 388.21875 551.488281 397.539062 560.8125 397.539062 572.339844 C 397.539062 583.871094 388.21875 593.195312 376.691406 593.195312 C 365.167969 593.195312 355.847656 583.871094 355.847656 572.339844 C 355.847656 560.8125 365.167969 551.488281 376.691406 551.488281 Z M 376.691406 551.488281 " fill-opacity="1" fill-rule="nonzero"/><path fill="rgb(100%, 100%, 100%)" d="M 373.917969 552.167969 C 383.90625 552.167969 391.988281 560.25 391.988281 570.246094 C 391.988281 580.238281 383.910156 588.320312 373.917969 588.320312 C 363.925781 588.320312 355.847656 580.238281 355.847656 570.246094 C 355.847656 560.25 363.925781 552.167969 373.917969 552.167969 Z M 373.917969 552.167969 " fill-opacity="1" fill-rule="nonzero"/></svg>